<svg xmlns="http://www.w3.org/2000/svg" width="135.01" height="35" viewBox="0 0 135.01 35"><rect class="svg__rect" x="0" y="0" width="135.01" height="35" fill="#B67DF8"/><rect class="svg__rect" x="135.01" y="0" width="0" height="35" fill="#389AD5"/><path class="svg__text" d="M13.95 18.19L13.95 18.19L13.95 17.39Q13.95 16.19 14.38 15.27Q14.80 14.35 15.60 13.85Q16.40 13.35 17.45 13.35L17.45 13.35Q18.86 13.35 19.73 14.12Q20.59 14.89 20.73 16.29L20.73 16.29L19.25 16.29Q19.14 15.37 18.71 14.96Q18.28 14.55 17.45 14.55L17.45 14.55Q16.48 14.55 15.97 15.26Q15.45 15.96 15.44 17.33L15.44 17.33L15.44 18.09Q15.44 19.47 15.93 20.20Q16.43 20.92 17.38 20.92L17.38 20.92Q18.25 20.92 18.69 20.53Q19.13 20.14 19.25 19.22L19.25 19.22L20.73 19.22Q20.60 20.59 19.72 21.35Q18.84 22.12 17.38 22.12L17.38 22.12Q16.36 22.12 15.59 21.63Q14.81 21.15 14.39 20.26Q13.97 19.37 13.95 18.19ZM24.77 18.00L24.77 18.00L24.77 17.52Q24.77 16.28 25.21 15.32Q25.65 14.37 26.46 13.86Q27.27 13.35 28.31 13.35Q29.35 13.35 30.16 13.85Q30.96 14.35 31.40 15.29Q31.84 16.23 31.85 17.48L31.85 17.48L31.85 17.96Q31.85 19.21 31.41 20.16Q30.98 21.10 30.18 21.61Q29.37 22.12 28.32 22.12L28.32 22.12Q27.28 22.12 26.47 21.61Q25.66 21.10 25.22 20.17Q24.78 19.23 24.77 18.00ZM26.25 17.46L26.25 17.96Q26.25 19.36 26.80 20.13Q27.35 20.90 28.32 20.90L28.32 20.90Q29.31 20.90 29.84 20.15Q30.37 19.40 30.37 17.96L30.37 17.96L30.37 17.51Q30.37 16.09 29.83 15.34Q29.29 14.58 28.31 14.58L28.31 14.58Q27.35 14.58 26.81 15.33Q26.26 16.09 26.25 17.46L26.25 17.46ZM36.18 19.16L36.18 19.16L36.18 13.47L37.65 13.47L37.65 19.18Q37.65 20.03 38.09 20.48Q38.52 20.93 39.37 20.93L39.37 20.93Q41.08 20.93 41.08 19.13L41.08 19.13L41.08 13.47L42.55 13.47L42.55 19.17Q42.55 20.53 41.68 21.32Q40.81 22.12 39.37 22.12L39.37 22.12Q37.90 22.12 37.04 21.33Q36.18 20.55 36.18 19.16ZM48.61 22L47.12 22L47.12 13.47L48.61 13.47L52.42 19.54L52.42 13.47L53.89 13.47L53.89 22L52.41 22L48.61 15.95L48.61 22ZM60.31 14.66L57.68 14.66L57.68 13.47L64.44 13.47L64.44 14.66L61.78 14.66L61.78 22L60.31 22L60.31 14.66ZM69.68 22L68.20 22L68.20 13.47L71.20 13.47Q72.68 13.47 73.48 14.13Q74.28 14.79 74.28 16.05L74.28 16.05Q74.28 16.90 73.87 17.48Q73.46 18.06 72.72 18.37L72.72 18.37L74.63 21.92L74.63 22L73.05 22L71.33 18.71L69.68 18.71L69.68 22ZM69.68 14.66L69.68 17.52L71.21 17.52Q71.96 17.52 72.38 17.15Q72.80 16.77 72.80 16.11L72.80 16.11Q72.80 15.43 72.41 15.05Q72.02 14.68 71.25 14.66L71.25 14.66L69.68 14.66ZM80.72 18.86L77.85 13.47L79.50 13.47L81.46 17.51L83.42 13.47L85.06 13.47L82.20 18.86L82.20 22L80.72 22L80.72 18.86ZM95.73 22L94.19 22L97.41 13.47L98.74 13.47L101.97 22L100.43 22L99.73 20.01L96.42 20.01L95.73 22ZM98.08 15.28L96.84 18.82L99.31 18.82L98.08 15.28ZM107.41 22L105.93 22L105.93 13.47L109.19 13.47Q110.62 13.47 111.46 14.21Q112.30 14.96 112.30 16.18L112.30 16.18Q112.30 17.44 111.48 18.13Q110.66 18.83 109.17 18.83L109.17 18.83L107.41 18.83L107.41 22ZM107.41 14.66L107.41 17.64L109.19 17.64Q109.98 17.64 110.40 17.27Q110.81 16.90 110.81 16.19L110.81 16.19Q110.81 15.50 110.39 15.09Q109.97 14.68 109.23 14.66L109.23 14.66L107.41 14.66ZM118.07 22L116.59 22L116.59 13.47L119.85 13.47Q121.28 13.47 122.12 14.21Q122.96 14.96 122.96 16.18L122.96 16.18Q122.96 17.44 122.14 18.13Q121.31 18.83 119.83 18.83L119.83 18.83L118.07 18.83L118.07 22ZM118.07 14.66L118.07 17.64L119.85 17.64Q120.64 17.64 121.06 17.27Q121.47 16.90 121.47 16.19L121.47 16.19Q121.47 15.50 121.05 15.09Q120.63 14.68 119.89 14.66L119.89 14.66L118.07 14.66Z" fill="#FFFFFF"/><path class="svg__text" d="" fill="#FFFFFF" x="148.01"/></svg>