<svg xmlns="http://www.w3.org/2000/svg" width="151.49" height="35" viewBox="0 0 151.49 35"><rect class="svg__rect" x="0" y="0" width="151.49" height="35" fill="#8FC965"/><rect class="svg__rect" x="151.49" y="0" width="0" height="35" fill="#E46C17"/><path class="svg__text" d="M15.69 22L14.22 22L14.22 13.47L16.14 13.47L18.60 20.01L21.06 13.47L22.97 13.47L22.97 22L21.49 22L21.49 19.19L21.64 15.43L19.12 22L18.06 22L15.55 15.43L15.69 19.19L15.69 22ZM28.49 22L26.95 22L30.17 13.47L31.50 13.47L34.73 22L33.18 22L32.49 20.01L29.18 20.01L28.49 22ZM30.83 15.28L29.60 18.82L32.07 18.82L30.83 15.28ZM38.25 19.42L38.25 19.42L39.73 19.42Q39.73 20.15 40.22 20.55Q40.70 20.95 41.59 20.95L41.59 20.95Q42.37 20.95 42.76 20.63Q43.14 20.32 43.14 19.80L43.14 19.80Q43.14 19.24 42.75 18.94Q42.35 18.63 41.32 18.32Q40.29 18.01 39.68 17.63L39.68 17.63Q38.52 16.90 38.52 15.72L38.52 15.72Q38.52 14.69 39.36 14.02Q40.20 13.35 41.54 13.35L41.54 13.35Q42.43 13.35 43.13 13.68Q43.82 14.01 44.22 14.61Q44.62 15.22 44.62 15.96L44.62 15.96L43.14 15.96Q43.14 15.29 42.73 14.91Q42.31 14.54 41.53 14.54L41.53 14.54Q40.80 14.54 40.40 14.85Q40.00 15.16 40.00 15.71L40.00 15.71Q40.00 16.18 40.43 16.50Q40.87 16.81 41.86 17.10Q42.86 17.40 43.46 17.78Q44.06 18.16 44.35 18.65Q44.63 19.13 44.63 19.79L44.63 19.79Q44.63 20.86 43.81 21.49Q42.99 22.12 41.59 22.12L41.59 22.12Q40.67 22.12 39.89 21.77Q39.11 21.43 38.68 20.83Q38.25 20.22 38.25 19.42ZM50.60 14.66L47.96 14.66L47.96 13.47L54.73 13.47L54.73 14.66L52.07 14.66L52.07 22L50.60 22L50.60 14.66ZM64.06 22L58.48 22L58.48 13.47L64.02 13.47L64.02 14.66L59.97 14.66L59.97 17.02L63.47 17.02L63.47 18.19L59.97 18.19L59.97 20.82L64.06 20.82L64.06 22ZM69.74 22L68.26 22L68.26 13.47L71.26 13.47Q72.73 13.47 73.54 14.13Q74.34 14.79 74.34 16.05L74.34 16.05Q74.34 16.90 73.93 17.48Q73.51 18.06 72.78 18.37L72.78 18.37L74.69 21.92L74.69 22L73.10 22L71.39 18.71L69.74 18.71L69.74 22ZM69.74 14.66L69.74 17.52L71.26 17.52Q72.01 17.52 72.44 17.15Q72.86 16.77 72.86 16.11L72.86 16.11Q72.86 15.43 72.47 15.05Q72.08 14.68 71.31 14.66L71.31 14.66L69.74 14.66ZM80.22 22L78.73 22L78.73 13.47L82.00 13.47Q83.43 13.47 84.27 14.21Q85.11 14.96 85.11 16.18L85.11 16.18Q85.11 17.44 84.29 18.13Q83.46 18.83 81.98 18.83L81.98 18.83L80.22 18.83L80.22 22ZM80.22 14.66L80.22 17.64L82.00 17.64Q82.79 17.64 83.21 17.27Q83.62 16.90 83.62 16.19L83.62 16.19Q83.62 15.50 83.20 15.09Q82.78 14.68 82.04 14.66L82.04 14.66L80.22 14.66ZM90.88 22L89.39 22L89.39 13.47L92.39 13.47Q93.87 13.47 94.67 14.13Q95.47 14.79 95.47 16.05L95.47 16.05Q95.47 16.90 95.06 17.48Q94.65 18.06 93.91 18.37L93.91 18.37L95.83 21.92L95.83 22L94.24 22L92.53 18.71L90.88 18.71L90.88 22ZM90.88 14.66L90.88 17.52L92.40 17.52Q93.15 17.52 93.57 17.15Q93.99 16.77 93.99 16.11L93.99 16.11Q93.99 15.43 93.60 15.05Q93.21 14.68 92.44 14.66L92.44 14.66L90.88 14.66ZM100.65 22L99.11 22L102.33 13.47L103.66 13.47L106.89 22L105.34 22L104.64 20.01L101.34 20.01L100.65 22ZM102.99 15.28L101.76 18.82L104.23 18.82L102.99 15.28ZM112.33 22L110.84 22L110.84 13.47L112.33 13.47L116.14 19.54L116.14 13.47L117.61 13.47L117.61 22L116.13 22L112.33 15.95L112.33 22ZM123.13 22L121.59 22L124.81 13.47L126.14 13.47L129.37 22L127.82 22L127.13 20.01L123.82 20.01L123.13 22ZM125.47 15.28L124.24 18.82L126.71 18.82L125.47 15.28ZM135.37 18.86L132.50 13.47L134.15 13.47L136.11 17.51L138.07 13.47L139.71 13.47L136.85 18.86L136.85 22L135.37 22L135.37 18.86Z" fill="#FFFFFF"/><path class="svg__text" d="" fill="#FFFFFF" x="164.49"/></svg>