<svg xmlns="http://www.w3.org/2000/svg" width="74.38" height="35" viewBox="0 0 74.38 35"><rect class="svg__rect" x="0" y="0" width="74.38" height="35" fill="#D4C2FA"/><rect class="svg__rect" x="74.38" y="0" width="0" height="35" fill="#389AD5"/><path class="svg__text" d="M15.70 22L14.22 22L14.22 13.47L17.22 13.47Q18.69 13.47 19.50 14.13Q20.30 14.79 20.30 16.05L20.30 16.05Q20.30 16.90 19.89 17.48Q19.47 18.06 18.73 18.37L18.73 18.37L20.65 21.92L20.65 22L19.06 22L17.35 18.71L15.70 18.71L15.70 22ZM15.70 14.66L15.70 17.52L17.22 17.52Q17.97 17.52 18.39 17.15Q18.82 16.77 18.82 16.11L18.82 16.11Q18.82 15.43 18.43 15.05Q18.04 14.68 17.26 14.66L17.26 14.66L15.70 14.66ZM30.27 22L24.69 22L24.69 13.47L30.23 13.47L30.23 14.66L26.18 14.66L26.18 17.02L29.68 17.02L29.68 18.19L26.18 18.19L26.18 20.82L30.27 20.82L30.27 22ZM36.92 22L34.47 22L34.47 13.47L36.99 13.47Q38.12 13.47 38.99 13.97Q39.87 14.48 40.35 15.40Q40.83 16.33 40.83 17.52L40.83 17.52L40.83 17.95Q40.83 19.16 40.35 20.08Q39.86 21.00 38.97 21.50Q38.08 22 36.92 22L36.92 22ZM35.95 14.66L35.95 20.82L36.92 20.82Q38.08 20.82 38.71 20.09Q39.33 19.36 39.34 17.99L39.34 17.99L39.34 17.52Q39.34 16.13 38.74 15.40Q38.14 14.66 36.99 14.66L36.99 14.66L35.95 14.66ZM45.16 19.16L45.16 19.16L45.16 13.47L46.64 13.47L46.64 19.18Q46.64 20.03 47.07 20.48Q47.50 20.93 48.35 20.93L48.35 20.93Q50.06 20.93 50.06 19.13L50.06 19.13L50.06 13.47L51.54 13.47L51.54 19.17Q51.54 20.53 50.67 21.32Q49.80 22.12 48.35 22.12L48.35 22.12Q46.88 22.12 46.02 21.33Q45.16 20.55 45.16 19.16ZM57.20 22L55.48 22L58.12 17.70L55.54 13.47L57.25 13.47L59.04 16.55L60.83 13.47L62.55 13.47L59.97 17.70L62.60 22L60.88 22L59.04 18.87L57.20 22Z" fill="#FFFFFF"/><path class="svg__text" d="" fill="#FFFFFF" x="87.38"/></svg>